<?xml version="1.0" encoding="utf-8"?>
<svg version="1.1" xmlns:xlink="http://www.w3.org/1999/xlink" width="12px" height="12px" viewBox="53 131  12 12" xmlns="http://www.w3.org/2000/svg">
  <path d="M 59 131  C 62.36 131  65 133.64  65 137  C 65 140.36  62.36 143  59 143  C 55.64 143  53 140.36  53 137  C 53 133.64  55.64 131  59 131  Z " fill-rule="nonzero" fill="#ffffff" stroke="none" />
  <path d="M 59 131.5  C 62.08 131.5  64.5 133.92  64.5 137  C 64.5 140.08  62.08 142.5  59 142.5  C 55.92 142.5  53.5 140.08  53.5 137  C 53.5 133.92  55.92 131.5  59 131.5  Z " stroke-width="1" stroke="#797979" fill="none" />
  <path d="M 59 140  C 57.32 140  56 138.68  56 137  C 56 135.32  57.32 134  59 134  C 60.68 134  62 135.32  62 137  C 62 138.68  60.68 140  59 140  " fill-rule="nonzero" fill="#797979" stroke="none" />
</svg>