<?xml version="1.0" encoding="utf-8"?>
<svg version="1.1" xmlns:xlink="http://www.w3.org/1999/xlink" width="12px" height="12px" viewBox="120 131  12 12" xmlns="http://www.w3.org/2000/svg">
  <path d="M 126 131  C 129.36 131  132 133.64  132 137  C 132 140.36  129.36 143  126 143  C 122.64 143  120 140.36  120 137  C 120 133.64  122.64 131  126 131  Z " fill-rule="nonzero" fill="#f0f0f0" stroke="none" />
  <path d="M 126 131.5  C 129.08 131.5  131.5 133.92  131.5 137  C 131.5 140.08  129.08 142.5  126 142.5  C 122.92 142.5  120.5 140.08  120.5 137  C 120.5 133.92  122.92 131.5  126 131.5  Z " stroke-width="1" stroke="#797979" fill="none" />
  <path d="M 126 140  C 124.32 140  123 138.68  123 137  C 123 135.32  124.32 134  126 134  C 127.68 134  129 135.32  129 137  C 129 138.68  127.68 140  126 140  " fill-rule="nonzero" fill="#797979" stroke="none" />
</svg>