<?xml version="1.0" encoding="utf-8"?>
<svg version="1.1" xmlns:xlink="http://www.w3.org/1999/xlink" width="12px" height="12px" viewBox="53 195  12 12" xmlns="http://www.w3.org/2000/svg">
  <path d="M 59 195  C 62.36 195  65 197.64  65 201  C 65 204.36  62.36 207  59 207  C 55.64 207  53 204.36  53 201  C 53 197.64  55.64 195  59 195  Z " fill-rule="nonzero" fill="#f0f0f0" stroke="none" />
  <path d="M 59 195.5  C 62.08 195.5  64.5 197.92  64.5 201  C 64.5 204.08  62.08 206.5  59 206.5  C 55.92 206.5  53.5 204.08  53.5 201  C 53.5 197.92  55.92 195.5  59 195.5  Z " stroke-width="1" stroke="#797979" fill="none" />
  <path d="M 59 204  C 57.32 204  56 202.68  56 201  C 56 199.32  57.32 198  59 198  C 60.68 198  62 199.32  62 201  C 62 202.68  60.68 204  59 204  " fill-rule="nonzero" fill="#797979" stroke="none" />
</svg>