<?xml version="1.0" encoding="utf-8"?>
<svg version="1.1" xmlns:xlink="http://www.w3.org/1999/xlink" width="12px" height="12px" viewBox="120 195  12 12" xmlns="http://www.w3.org/2000/svg">
  <path d="M 126 195  C 129.36 195  132 197.64  132 201  C 132 204.36  129.36 207  126 207  C 122.64 207  120 204.36  120 201  C 120 197.64  122.64 195  126 195  Z " fill-rule="nonzero" fill="#f0f0f0" stroke="none" />
  <path d="M 126 195.5  C 129.08 195.5  131.5 197.92  131.5 201  C 131.5 204.08  129.08 206.5  126 206.5  C 122.92 206.5  120.5 204.08  120.5 201  C 120.5 197.92  122.92 195.5  126 195.5  Z " stroke-width="1" stroke="#797979" fill="none" />
  <path d="M 126 204  C 124.32 204  123 202.68  123 201  C 123 199.32  124.32 198  126 198  C 127.68 198  129 199.32  129 201  C 129 202.68  127.68 204  126 204  " fill-rule="nonzero" fill="#797979" stroke="none" />
</svg>