<?xml version="1.0" encoding="utf-8"?>
<svg version="1.1" xmlns:xlink="http://www.w3.org/1999/xlink" width="12px" height="12px" viewBox="53 772  12 12" xmlns="http://www.w3.org/2000/svg">
  <path d="M 59 772  C 62.36 772  65 774.64  65 778  C 65 781.36  62.36 784  59 784  C 55.64 784  53 781.36  53 778  C 53 774.64  55.64 772  59 772  Z " fill-rule="nonzero" fill="#f0f0f0" stroke="none" />
  <path d="M 59 772.5  C 62.08 772.5  64.5 774.92  64.5 778  C 64.5 781.08  62.08 783.5  59 783.5  C 55.92 783.5  53.5 781.08  53.5 778  C 53.5 774.92  55.92 772.5  59 772.5  Z " stroke-width="1" stroke="#797979" fill="none" />
  <path d="M 59 781  C 57.32 781  56 779.68  56 778  C 56 776.32  57.32 775  59 775  C 60.68 775  62 776.32  62 778  C 62 779.68  60.68 781  59 781  " fill-rule="nonzero" fill="#797979" stroke="none" />
</svg>