<?xml version="1.0" encoding="utf-8"?>
<svg version="1.1" xmlns:xlink="http://www.w3.org/1999/xlink" width="12px" height="12px" viewBox="120 772  12 12" xmlns="http://www.w3.org/2000/svg">
  <path d="M 126 772  C 129.36 772  132 774.64  132 778  C 132 781.36  129.36 784  126 784  C 122.64 784  120 781.36  120 778  C 120 774.64  122.64 772  126 772  Z " fill-rule="nonzero" fill="#f0f0f0" stroke="none" />
  <path d="M 126 772.5  C 129.08 772.5  131.5 774.92  131.5 778  C 131.5 781.08  129.08 783.5  126 783.5  C 122.92 783.5  120.5 781.08  120.5 778  C 120.5 774.92  122.92 772.5  126 772.5  Z " stroke-width="1" stroke="#797979" fill="none" />
  <path d="M 126 781  C 124.32 781  123 779.68  123 778  C 123 776.32  124.32 775  126 775  C 127.68 775  129 776.32  129 778  C 129 779.68  127.68 781  126 781  " fill-rule="nonzero" fill="#797979" stroke="none" />
</svg>