<?xml version="1.0" encoding="utf-8"?>
<svg version="1.1" xmlns:xlink="http://www.w3.org/1999/xlink" width="12px" height="12px" viewBox="53 1067  12 12" xmlns="http://www.w3.org/2000/svg">
  <path d="M 59 1067  C 62.36 1067  65 1069.64  65 1073  C 65 1076.36  62.36 1079  59 1079  C 55.64 1079  53 1076.36  53 1073  C 53 1069.64  55.64 1067  59 1067  Z " fill-rule="nonzero" fill="#f0f0f0" stroke="none" />
  <path d="M 59 1067.5  C 62.08 1067.5  64.5 1069.92  64.5 1073  C 64.5 1076.08  62.08 1078.5  59 1078.5  C 55.92 1078.5  53.5 1076.08  53.5 1073  C 53.5 1069.92  55.92 1067.5  59 1067.5  Z " stroke-width="1" stroke="#797979" fill="none" />
  <path d="M 59 1076  C 57.32 1076  56 1074.68  56 1073  C 56 1071.32  57.32 1070  59 1070  C 60.68 1070  62 1071.32  62 1073  C 62 1074.68  60.68 1076  59 1076  " fill-rule="nonzero" fill="#797979" stroke="none" />
</svg>