<?xml version="1.0" encoding="utf-8"?>
<svg version="1.1" xmlns:xlink="http://www.w3.org/1999/xlink" width="12px" height="12px" viewBox="53 1187  12 12" xmlns="http://www.w3.org/2000/svg">
  <path d="M 59 1187  C 62.36 1187  65 1189.64  65 1193  C 65 1196.36  62.36 1199  59 1199  C 55.64 1199  53 1196.36  53 1193  C 53 1189.64  55.64 1187  59 1187  Z " fill-rule="nonzero" fill="#f0f0f0" stroke="none" />
  <path d="M 59 1187.5  C 62.08 1187.5  64.5 1189.92  64.5 1193  C 64.5 1196.08  62.08 1198.5  59 1198.5  C 55.92 1198.5  53.5 1196.08  53.5 1193  C 53.5 1189.92  55.92 1187.5  59 1187.5  Z " stroke-width="1" stroke="#797979" fill="none" />
  <path d="M 59 1196  C 57.32 1196  56 1194.68  56 1193  C 56 1191.32  57.32 1190  59 1190  C 60.68 1190  62 1191.32  62 1193  C 62 1194.68  60.68 1196  59 1196  " fill-rule="nonzero" fill="#797979" stroke="none" />
</svg>