<?xml version="1.0" encoding="utf-8"?>
<svg version="1.1" xmlns:xlink="http://www.w3.org/1999/xlink" width="12px" height="12px" viewBox="120 1187  12 12" xmlns="http://www.w3.org/2000/svg">
  <path d="M 126 1187  C 129.36 1187  132 1189.64  132 1193  C 132 1196.36  129.36 1199  126 1199  C 122.64 1199  120 1196.36  120 1193  C 120 1189.64  122.64 1187  126 1187  Z " fill-rule="nonzero" fill="#f0f0f0" stroke="none" />
  <path d="M 126 1187.5  C 129.08 1187.5  131.5 1189.92  131.5 1193  C 131.5 1196.08  129.08 1198.5  126 1198.5  C 122.92 1198.5  120.5 1196.08  120.5 1193  C 120.5 1189.92  122.92 1187.5  126 1187.5  Z " stroke-width="1" stroke="#797979" fill="none" />
  <path d="M 126 1196  C 124.32 1196  123 1194.68  123 1193  C 123 1191.32  124.32 1190  126 1190  C 127.68 1190  129 1191.32  129 1193  C 129 1194.68  127.68 1196  126 1196  " fill-rule="nonzero" fill="#797979" stroke="none" />
</svg>