<?xml version="1.0" encoding="utf-8"?>
<svg version="1.1" xmlns:xlink="http://www.w3.org/1999/xlink" width="12px" height="12px" viewBox="53 1252  12 12" xmlns="http://www.w3.org/2000/svg">
  <path d="M 59 1252  C 62.36 1252  65 1254.64  65 1258  C 65 1261.36  62.36 1264  59 1264  C 55.64 1264  53 1261.36  53 1258  C 53 1254.64  55.64 1252  59 1252  Z " fill-rule="nonzero" fill="#f0f0f0" stroke="none" />
  <path d="M 59 1252.5  C 62.08 1252.5  64.5 1254.92  64.5 1258  C 64.5 1261.08  62.08 1263.5  59 1263.5  C 55.92 1263.5  53.5 1261.08  53.5 1258  C 53.5 1254.92  55.92 1252.5  59 1252.5  Z " stroke-width="1" stroke="#797979" fill="none" />
  <path d="M 59 1261  C 57.32 1261  56 1259.68  56 1258  C 56 1256.32  57.32 1255  59 1255  C 60.68 1255  62 1256.32  62 1258  C 62 1259.68  60.68 1261  59 1261  " fill-rule="nonzero" fill="#797979" stroke="none" />
</svg>