<?xml version="1.0" encoding="utf-8"?>
<svg version="1.1" xmlns:xlink="http://www.w3.org/1999/xlink" width="12px" height="12px" viewBox="53 1975  12 12" xmlns="http://www.w3.org/2000/svg">
  <path d="M 59 1975  C 62.36 1975  65 1977.64  65 1981  C 65 1984.36  62.36 1987  59 1987  C 55.64 1987  53 1984.36  53 1981  C 53 1977.64  55.64 1975  59 1975  Z " fill-rule="nonzero" fill="#f0f0f0" stroke="none" />
  <path d="M 59 1975.5  C 62.08 1975.5  64.5 1977.92  64.5 1981  C 64.5 1984.08  62.08 1986.5  59 1986.5  C 55.92 1986.5  53.5 1984.08  53.5 1981  C 53.5 1977.92  55.92 1975.5  59 1975.5  Z " stroke-width="1" stroke="#797979" fill="none" />
  <path d="M 59 1984  C 57.32 1984  56 1982.68  56 1981  C 56 1979.32  57.32 1978  59 1978  C 60.68 1978  62 1979.32  62 1981  C 62 1982.68  60.68 1984  59 1984  " fill-rule="nonzero" fill="#797979" stroke="none" />
</svg>