<?xml version="1.0" encoding="utf-8"?>
<svg version="1.1" xmlns:xlink="http://www.w3.org/1999/xlink" width="12px" height="12px" viewBox="53 2003  12 12" xmlns="http://www.w3.org/2000/svg">
  <path d="M 59 2003  C 62.36 2003  65 2005.64  65 2009  C 65 2012.36  62.36 2015  59 2015  C 55.64 2015  53 2012.36  53 2009  C 53 2005.64  55.64 2003  59 2003  Z " fill-rule="nonzero" fill="#f0f0f0" stroke="none" />
  <path d="M 59 2003.5  C 62.08 2003.5  64.5 2005.92  64.5 2009  C 64.5 2012.08  62.08 2014.5  59 2014.5  C 55.92 2014.5  53.5 2012.08  53.5 2009  C 53.5 2005.92  55.92 2003.5  59 2003.5  Z " stroke-width="1" stroke="#797979" fill="none" />
  <path d="M 59 2012  C 57.32 2012  56 2010.68  56 2009  C 56 2007.32  57.32 2006  59 2006  C 60.68 2006  62 2007.32  62 2009  C 62 2010.68  60.68 2012  59 2012  " fill-rule="nonzero" fill="#797979" stroke="none" />
</svg>